<svg xmlns="http://www.w3.org/2000/svg" width="40" height="40" viewBox="0 0 40 40" fill="none">
<path d="M13.1871 13.1818L13.3235 19.1818C13.4074 22.8744 13.4494 24.7208 14.6152 25.8604C15.781 27 17.6278 27 21.3214 27H27.3566C30.974 27 32.7828 27 33.9424 25.8919C35.1019 24.7839 35.1841 22.977 35.3483 19.3633L35.6211 13.3633C35.7995 9.43648 35.8888 7.47307 34.7072 6.23654C33.5256 5 31.5602 5 27.6293 5H21.1851C17.3348 5 15.4096 5 14.2328 6.20389C13.0559 7.40778 13.0997 9.33245 13.1871 13.1818Z" fill="#ffd700"/>
<path d="M5.29497 14.2366C6.23621 13.2516 7.67482 13.0513 10.2081 13.0105L10.2977 18.2069C10.3937 23.7744 10.4417 26.5582 12.1925 28.2791C13.9434 30.0001 16.7276 30.0001 22.2959 30.0001H26.966C26.8883 31.8724 26.6376 33.0203 25.8294 33.8285C24.6578 35.0001 22.7722 35.0001 19.001 35.0001H12.6456C9.02811 35.0001 7.21938 35.0001 6.0598 33.892C4.90022 32.784 4.81809 30.9771 4.65383 27.3634L4.3811 21.3634C4.20261 17.4366 4.11336 15.4732 5.29497 14.2366Z" fill="#ffd700"/>
</svg>