<svg id="Layer_1" data-name="Layer 1" xmlns="http://www.w3.org/2000/svg" viewBox="0 0 184.21 92.41"><defs><style>.cls-1{fill:#00804a;}.cls-2{fill:#0d3d21;}</style></defs><title>logo</title><g id="_Group_" data-name="&lt;Group&gt;"><path id="_Path_" data-name="&lt;Path&gt;" d="M273.83,107.11a0.8,0.8,0,0,1-1.17-.78V69.07c0-.72.48-0.92,1-0.52l20.69,14.68a2.74,2.74,0,0,1,1.05,2v12A2.2,2.2,0,0,1,294.3,99L292,100a0.77,0.77,0,0,1-1.15-.76V88.7a2.74,2.74,0,0,0-1-2L281,80.41c-0.58-.39-1-0.17-1,0.55v22.48a1.93,1.93,0,0,1-1.16,1.71Z" transform="translate(-272.67 -31.86)"/><path id="_Path_2" data-name="&lt;Path&gt;" class="cls-1" d="M283.86,72.22c0,0.69-.46,1-1,0.53l-4.73-3.21a2.64,2.64,0,0,1-1-2v-35a0.6,0.6,0,0,1,1-.54l14.75,10.55a2.85,2.85,0,0,1,1,2V64.92a2.71,2.71,0,0,1-1,2l-0.84.62c-0.55.4-1,.16-1-0.53V46.18a2.73,2.73,0,0,0-1-2L284.9,40.6c-0.57-.39-1-0.19-1,0.53V72.22Z" transform="translate(-272.67 -31.86)"/><path id="_Path_3" data-name="&lt;Path&gt;" class="cls-2" d="M305,94.66a2.08,2.08,0,0,0,1.16-1.76V61c0-.69-0.47-0.94-1-0.54L286.48,74a0.85,0.85,0,0,0,0,1.47l3.21,2.24a2,2,0,0,0,2.07,0l6.14-4.41c0.57-.42,1-0.16,1,0.52V96a0.77,0.77,0,0,0,1.17.76Z" transform="translate(-272.67 -31.86)"/><path id="_Compound_Path_" data-name="&lt;Compound Path&gt;" class="cls-1" d="M340.35,69.22a2.71,2.71,0,0,0-2.08-.91H324.58V92.42h-6V62.31h19.86a9,9,0,0,1,8.77,8.77v0.5a8.45,8.45,0,0,1-2.6,6.14c-1.74,1.76-3.81,1.94-6.17,1.94h-2.51l8.86,12.76h-6.73L326.17,74.33h12.09a2.78,2.78,0,0,0,2-.9,2.84,2.84,0,0,0,.92-2A3.09,3.09,0,0,0,340.35,69.22Z" transform="translate(-272.67 -31.86)"/><path id="_Compound_Path_2" data-name="&lt;Compound Path&gt;" class="cls-1" d="M357.12,92.42h-6V62.31h6V92.42Z" transform="translate(-272.67 -31.86)"/><path id="_Compound_Path_3" data-name="&lt;Compound Path&gt;" class="cls-1" d="M387.51,92.42h-17a8.45,8.45,0,0,1-6.18-2.68,8.34,8.34,0,0,1-2.65-6.12V71.09a8.5,8.5,0,0,1,2.65-6.19,8.6,8.6,0,0,1,6.18-2.59h17v6H370.69a2.82,2.82,0,0,0-2.07.9,2.77,2.77,0,0,0-.88,2.08V83.44a2.84,2.84,0,0,0,.86,2.07,2.87,2.87,0,0,0,2.09.87h16.82v6.05Z" transform="translate(-272.67 -31.86)"/><g id="_Group_2" data-name="&lt;Group&gt;"><rect id="_Path_4" data-name="&lt;Path&gt;" class="cls-1" x="120.14" y="30.46" width="6.03" height="30.11"/><polygon id="_Path_5" data-name="&lt;Path&gt;" class="cls-1" points="149.54 60.57 143.48 60.57 143.48 48.52 131.49 48.52 128.48 42.48 143.48 42.48 143.48 30.46 149.54 30.46 149.54 60.57"/></g><path id="_Compound_Path_4" data-name="&lt;Compound Path&gt;" class="cls-1" d="M432.82,62.31V71.4a2.89,2.89,0,0,0,.84,2.08,2.94,2.94,0,0,0,2.1.85h12.16a2.71,2.71,0,0,0,2-.9,2.76,2.76,0,0,0,.87-2V62.31h6v9.27a9.06,9.06,0,0,1-8.82,8.8h-3.22v12h-6v-12h-3.23a8.52,8.52,0,0,1-6.14-2.66,8.28,8.28,0,0,1-2.63-6.14V62.31h6Z" transform="translate(-272.67 -31.86)"/><g id="_Group_3" data-name="&lt;Group&gt;"><path id="_Compound_Path_5" data-name="&lt;Compound Path&gt;" d="M328.74,110.13a3,3,0,0,1-.64,1.81,7.51,7.51,0,0,1-1.64,1.54,10.31,10.31,0,0,1-2.13,1.15,10.45,10.45,0,0,1-2.16.61,13.39,13.39,0,0,0,2.31,1.11,22.63,22.63,0,0,0,2.5.78c0.09,0,.19,0,0.28.07a0.87,0.87,0,0,0,.27.06h0.27l0.35,0a0.89,0.89,0,0,1,.31.11,0.15,0.15,0,0,1,.14.14,0.77,0.77,0,0,1-.31.65,1.18,1.18,0,0,1-.76.24,5.17,5.17,0,0,1-1.28-.27c-0.58-.16-1.18-0.37-1.82-0.59s-1.25-.5-1.82-0.73a9.71,9.71,0,0,1-1.17-.58,2.77,2.77,0,0,0-.11.4,4.8,4.8,0,0,0-.08.5c0,0.18,0,.34,0,0.51s0,0.3,0,.43a3,3,0,0,0,0,.42,1,1,0,0,1,0,.36,0.53,0.53,0,0,1-.17.29,1,1,0,0,1-.44.26,1.19,1.19,0,0,1-.47.1,0.44,0.44,0,0,1-.42-0.21,0.92,0.92,0,0,1-.1-0.43c0-.85,0-1.65.05-2.44s0.11-1.53.23-2.29,0.25-1.51.42-2.27,0.4-1.56.65-2.4c0-.1.08-0.26,0.13-0.44s0.13-.36.21-0.55a3.45,3.45,0,0,1,.29-0.49,0.83,0.83,0,0,1,.35-0.32,1.45,1.45,0,0,1,.52-0.08,1.19,1.19,0,0,1,.6.13,0.48,0.48,0,0,1,.24.46,1.44,1.44,0,0,1-.09.44c-0.06.19-.13,0.38-0.2,0.58s-0.15.39-.23,0.6a4.52,4.52,0,0,0-.18.48,21.36,21.36,0,0,0-1,4.36c0.56-.13,1.18-0.29,1.87-0.51a10.09,10.09,0,0,0,1.87-.82,5.66,5.66,0,0,0,1.45-1.18,2.34,2.34,0,0,0,.59-1.57,2,2,0,0,0-.5-1.36,4.66,4.66,0,0,0-1.25-1,7.79,7.79,0,0,0-1.66-.65,9.39,9.39,0,0,0-1.66-.31c-0.08,0-.21,0-0.38,0a3.29,3.29,0,0,1-.51,0,1.92,1.92,0,0,1-.43-0.13,0.28,0.28,0,0,1-.19-0.25,0.81,0.81,0,0,1,.08-0.29,0.71,0.71,0,0,1,.34-0.39,1.54,1.54,0,0,1,.58-0.07h0.33l0.34,0a13.88,13.88,0,0,1,2.07.37,8.77,8.77,0,0,1,2,.75,4.6,4.6,0,0,1,1.52,1.2A2.51,2.51,0,0,1,328.74,110.13Z" transform="translate(-272.67 -31.86)"/><path id="_Compound_Path_6" data-name="&lt;Compound Path&gt;" d="M331.13,116.85a2.09,2.09,0,0,0,.08.48,1.19,1.19,0,0,0,.2.42,0.48,0.48,0,0,0,.39.18,1.47,1.47,0,0,0,.83-0.31,7.14,7.14,0,0,0,.88-0.72,9.18,9.18,0,0,0,.78-0.85c0.23-.29.42-0.51,0.55-0.7l0.22-.27a0.47,0.47,0,0,1,.32-0.13,0.19,0.19,0,0,1,.22.11,0.91,0.91,0,0,1,0,.24,0.41,0.41,0,0,1-.06.2c0,0.08-.08.15-0.13,0.24s-0.11.14-.17,0.22a1.78,1.78,0,0,1-.15.16c-0.18.22-.41,0.47-0.69,0.77a9.26,9.26,0,0,1-.93.87,7.39,7.39,0,0,1-1,.68,2.3,2.3,0,0,1-1.06.29,1.32,1.32,0,0,1-.91-0.31,2.31,2.31,0,0,1-.53-0.73,3.13,3.13,0,0,1-.24-0.91,5.5,5.5,0,0,1-.06-0.84,4.88,4.88,0,0,1,.12-1,7.06,7.06,0,0,1,.28-1,2.08,2.08,0,0,1,.47-0.74,1.3,1.3,0,0,1,.91-0.3,0.36,0.36,0,0,1,.45.37,1.53,1.53,0,0,1-.07.38c-0.05.14-.1,0.3-0.17,0.45s-0.13.31-.18,0.47-0.12.29-.17,0.42a6.17,6.17,0,0,0-.16,1.43C331.13,116.56,331.13,116.67,331.13,116.85Zm1.25-6.2a0.61,0.61,0,0,1,.18.41,0.87,0.87,0,0,1-.27.61,0.93,0.93,0,0,1-.66.26,0.62,0.62,0,0,1-.47-0.19,0.6,0.6,0,0,1-.18-0.43,0.93,0.93,0,0,1,.27-0.59,0.87,0.87,0,0,1,.64-0.26A0.6,0.6,0,0,1,332.39,110.65Z" transform="translate(-272.67 -31.86)"/><path id="_Compound_Path_7" data-name="&lt;Compound Path&gt;" d="M336.53,118.48a2.25,2.25,0,0,1-.78-0.64,2.68,2.68,0,0,1-.45-0.89,3.78,3.78,0,0,1-.13-1,4.49,4.49,0,0,1,.23-1.35,4.22,4.22,0,0,1,.69-1.33,4.33,4.33,0,0,1,1.13-1,2.91,2.91,0,0,1,1.54-.4,1.85,1.85,0,0,1,1.13.3,1,1,0,0,1,.42.91,2,2,0,0,1,0,.43,1.38,1.38,0,0,1-.12.47,1,1,0,0,1-.3.35,0.8,0.8,0,0,1-.47.14c-0.14,0-.21-0.05-0.21-0.16a0.93,0.93,0,0,1,.18-0.46,1.19,1.19,0,0,0,.17-0.64,1.13,1.13,0,0,0-.07-0.43,0.35,0.35,0,0,0-.39-0.21,1.37,1.37,0,0,0-1,.41,3.71,3.71,0,0,0-.71,1,6,6,0,0,0-.44,1.18,3.79,3.79,0,0,0-.15.93,2.67,2.67,0,0,0,.07.63,1.47,1.47,0,0,0,.27.53,1.35,1.35,0,0,0,.46.4,1.89,1.89,0,0,0,.73.13,3.67,3.67,0,0,0,1.2-.2,4.28,4.28,0,0,0,1.06-.51,5.07,5.07,0,0,0,.91-0.72,9.87,9.87,0,0,0,.72-0.86,2.09,2.09,0,0,1,.24-0.28,0.47,0.47,0,0,1,.34-0.15,0.25,0.25,0,0,1,.29.25,0.36,0.36,0,0,1-.06.2l-0.11.18a6.45,6.45,0,0,1-1,1.14,7,7,0,0,1-1.23,1,5.94,5.94,0,0,1-1.46.64,5.51,5.51,0,0,1-1.63.24A2.32,2.32,0,0,1,336.53,118.48Z" transform="translate(-272.67 -31.86)"/><path id="_Compound_Path_8" data-name="&lt;Compound Path&gt;" d="M347.91,113a8.31,8.31,0,0,0-.79.88c-0.28.35-.58,0.75-0.88,1.18s-0.58.83-.85,1.23l-0.7,1.07c-0.2.32-.33,0.57-0.41,0.7l-0.18.31a2.64,2.64,0,0,1-.23.3,1.09,1.09,0,0,1-.29.24,0.76,0.76,0,0,1-.38.11,0.43,0.43,0,0,1-.33-0.12,0.66,0.66,0,0,1-.21-0.25,0.76,0.76,0,0,1-.1-0.31,2,2,0,0,1,0-.31,5,5,0,0,1,.08-0.82,7.65,7.65,0,0,0,.13-0.85c0.09-.51.15-1,0.22-1.53s0.14-1,.21-1.54,0.17-1.24.27-2,0.24-1.46.39-2.21a21.47,21.47,0,0,1,.55-2.18,7.62,7.62,0,0,1,.79-1.79,3.37,3.37,0,0,1,.27-0.4,2.15,2.15,0,0,1,.37-0.36,1.35,1.35,0,0,1,.44-0.29,1.23,1.23,0,0,1,.52-0.1,0.76,0.76,0,0,1,.52.16,1.25,1.25,0,0,1,.33.39,1.84,1.84,0,0,1,.15.51,3.19,3.19,0,0,1,0,.46,9.82,9.82,0,0,1-.64,3.53,18.72,18.72,0,0,1-1.6,3.32c-0.16.27-.31,0.52-0.47,0.78a6.21,6.21,0,0,0-.48.73,2.08,2.08,0,0,0-.16.46c-0.05.24-.1,0.52-0.17,0.8s-0.1.59-.15,0.84-0.08.45-.11,0.58a8.06,8.06,0,0,1,.48-0.81c0.21-.33.44-0.67,0.69-1s0.54-.72.83-1.07a11.16,11.16,0,0,1,.93-1,4.54,4.54,0,0,1,1-.71,1.88,1.88,0,0,1,.93-0.27,1,1,0,0,1,.53.15,1.07,1.07,0,0,1,.33.38,1.23,1.23,0,0,1,.18.46,2.9,2.9,0,0,1,.05.49,11.07,11.07,0,0,1-.19,2,10.84,10.84,0,0,0-.18,2,1.75,1.75,0,0,0,0,.24,1.11,1.11,0,0,0,.06.24,0.53,0.53,0,0,0,.45.26,1.65,1.65,0,0,0,.86-0.29,5.41,5.41,0,0,0,.87-0.65,7.49,7.49,0,0,0,.78-0.77c0.24-.27.43-0.49,0.56-0.67l0.2-.24a0.36,0.36,0,0,1,.3-0.16,0.25,0.25,0,0,1,.22.1,0.4,0.4,0,0,1,.06.23,0.15,0.15,0,0,1,0,.13,0.36,0.36,0,0,1-.07.13,7.32,7.32,0,0,1-.77,1,7.81,7.81,0,0,1-1.08,1,6.7,6.7,0,0,1-1.27.8,3.29,3.29,0,0,1-1.36.31,0.75,0.75,0,0,1-.61-0.26,2,2,0,0,1-.3-0.62,3.25,3.25,0,0,1-.1-0.74c0-.25,0-0.44,0-0.61a15.67,15.67,0,0,1,.11-1.75c0.07-.59.13-1.17,0.2-1.76v-0.12a1.64,1.64,0,0,0,0-.25,0.16,0.16,0,0,0-.18-0.14A1,1,0,0,0,347.91,113Zm-1.61-7.72a10.16,10.16,0,0,0-.53,1.25c-0.17.52-.34,1.08-0.47,1.67s-0.28,1.21-.39,1.77-0.19,1.07-.26,1.54a8.49,8.49,0,0,0-.13,1,15,15,0,0,0,.9-1.54,18.63,18.63,0,0,0,.84-1.83,18.91,18.91,0,0,0,.63-1.85,6.84,6.84,0,0,0,.24-1.67V105.4a0.77,0.77,0,0,0,0-.25c0-.08,0-0.16-0.06-0.22a0.14,0.14,0,0,0-.14-0.09A0.76,0.76,0,0,0,346.3,105.31Z" transform="translate(-272.67 -31.86)"/><path id="_Compound_Path_9" data-name="&lt;Compound Path&gt;" d="M360.4,116.85a2.22,2.22,0,0,0,.08.48,1.31,1.31,0,0,0,.2.42,0.47,0.47,0,0,0,.38.18,1.46,1.46,0,0,0,.83-0.31,6,6,0,0,0,.88-0.72,7.19,7.19,0,0,0,.78-0.85c0.25-.29.42-0.51,0.56-0.7s0.13-.16.21-0.27a0.45,0.45,0,0,1,.33-0.13,0.17,0.17,0,0,1,.21.11,0.75,0.75,0,0,1,0,.24,0.54,0.54,0,0,1-.06.2,2,2,0,0,1-.15.24c-0.06.08-.11,0.14-0.17,0.22a1,1,0,0,1-.15.16c-0.18.22-.41,0.47-0.68,0.77a9.5,9.5,0,0,1-.95.87,6.52,6.52,0,0,1-1,.68,2.27,2.27,0,0,1-1.05.29,1.31,1.31,0,0,1-.92-0.31,2.13,2.13,0,0,1-.52-0.73,3.38,3.38,0,0,1-.26-0.91c0-.33-0.05-0.6-0.05-0.84a4.42,4.42,0,0,1,.13-1,6.51,6.51,0,0,1,.27-1,2.19,2.19,0,0,1,.47-0.74,1.3,1.3,0,0,1,.91-0.3,0.36,0.36,0,0,1,.44.37,1.28,1.28,0,0,1-.07.38c0,0.14-.11.3-0.17,0.45s-0.12.31-.2,0.47-0.11.29-.15,0.42a5.72,5.72,0,0,0-.17,1.43C360.39,116.56,360.39,116.67,360.4,116.85Zm1.24-6.2a0.58,0.58,0,0,1,.19.41,0.88,0.88,0,0,1-.28.61,0.92,0.92,0,0,1-.65.26,0.64,0.64,0,0,1-.65-0.62,0.93,0.93,0,0,1,.26-0.59,0.89,0.89,0,0,1,.65-0.26A0.56,0.56,0,0,1,361.64,110.65Z" transform="translate(-272.67 -31.86)"/><path id="_Compound_Path_10" data-name="&lt;Compound Path&gt;" d="M364.15,118.84a0.43,0.43,0,0,1-.09-0.29,10.38,10.38,0,0,1,.3-2.46c0.2-.84.39-1.66,0.58-2.44a6.32,6.32,0,0,0,.18-0.75c0-.26.11-0.52,0.17-0.77a1,1,0,0,1,.41-0.53,1.15,1.15,0,0,1,.71-0.26,0.56,0.56,0,0,1,.45.15,0.68,0.68,0,0,1,.12.42,2.48,2.48,0,0,1-.16.89c-0.1.29-.21,0.58-0.32,0.85a4.74,4.74,0,0,0-.33.91c-0.08.3-.14,0.63-0.19,0.94,0.14-.17.35-0.43,0.63-0.74a10.1,10.1,0,0,1,.89-1,7.82,7.82,0,0,1,1-.84,1.6,1.6,0,0,1,.85-0.35,0.62,0.62,0,0,1,.46.19,1,1,0,0,1,.26.44,2.37,2.37,0,0,1,.11.5c0,0.18,0,.31,0,0.44,0,0.39,0,.76,0,1.13s0,0.77,0,1.15v0.31a1,1,0,0,0,.07.32,0.64,0.64,0,0,0,.18.25,0.61,0.61,0,0,0,.36.09,1.43,1.43,0,0,0,.77-0.25,3.63,3.63,0,0,0,.76-0.6,4.63,4.63,0,0,0,.65-0.72,5.28,5.28,0,0,0,.45-0.63,1.77,1.77,0,0,1,.18-0.27,0.36,0.36,0,0,1,.29-0.14,0.3,0.3,0,0,1,.24.11,0.35,0.35,0,0,1,.09.22,0.32,0.32,0,0,1-.06.17l-0.08.17a6.17,6.17,0,0,1-.6.85,5.68,5.68,0,0,1-.91.89,5.79,5.79,0,0,1-1.07.72,2.41,2.41,0,0,1-1.1.29,1.38,1.38,0,0,1-.78-0.2,1.48,1.48,0,0,1-.42-0.56,2,2,0,0,1-.18-0.69c0-.25,0-0.46,0-0.68a8,8,0,0,1,0-.91c0-.32,0-0.62,0-0.93a1,1,0,0,0,0-.21,0.14,0.14,0,0,0-.15-0.11,0.41,0.41,0,0,0-.23.09,0.71,0.71,0,0,0-.21.16,5.8,5.8,0,0,0-.91.9c-0.27.35-.54,0.68-0.77,1s-0.54.78-.77,1.17-0.45.8-.67,1.21a1.24,1.24,0,0,1-.31.34,0.74,0.74,0,0,1-.47.16A0.38,0.38,0,0,1,364.15,118.84Z" transform="translate(-272.67 -31.86)"/><path id="_Compound_Path_11" data-name="&lt;Compound Path&gt;" d="M380.15,118.72a2.7,2.7,0,0,1-.64-0.76,4.54,4.54,0,0,1-.42-1,8.07,8.07,0,0,1-.23-1.14c-0.05-.4-0.08-0.76-0.11-1.09s0-.6,0-0.8a17.58,17.58,0,0,1,.33-3.37,12.29,12.29,0,0,1,1.13-3.23,7.23,7.23,0,0,1,.42-0.7,5.44,5.44,0,0,1,.63-0.78,4.13,4.13,0,0,1,.76-0.66,1.51,1.51,0,0,1,.84-0.24,1,1,0,0,1,.56.13,1.11,1.11,0,0,1,.35.36,1.39,1.39,0,0,1,.18.48,1.53,1.53,0,0,1,.07.49,7.47,7.47,0,0,1-.21,1.65,14,14,0,0,1-.56,1.79c-0.23.59-.48,1.16-0.76,1.73a16.53,16.53,0,0,1-.86,1.51c-0.15.22-.29,0.42-0.45,0.62a6,6,0,0,0-.47.62,2.91,2.91,0,0,0-.19.24,0.45,0.45,0,0,0-.13.24,0.82,0.82,0,0,0-.08.35v0.37c0,0.16,0,.38,0,0.66a4.46,4.46,0,0,0,.17.86,3,3,0,0,0,.37.74,0.76,0.76,0,0,0,.63.31,1.59,1.59,0,0,0,.75-0.22,4.64,4.64,0,0,0,.78-0.54c0.25-.22.48-0.43,0.69-0.66l0.51-.56c0.09-.11.16-0.23,0.25-0.32a3.84,3.84,0,0,1,.25-0.35,0.84,0.84,0,0,1,.16-0.16,0.47,0.47,0,0,1,.24,0,0.24,0.24,0,0,1,.21.06,0.33,0.33,0,0,1,.07.21,0.53,0.53,0,0,1-.1.31c-0.07.09-.12,0.19-0.19,0.28-0.18.26-.43,0.56-0.72,0.9a8.3,8.3,0,0,1-1,1,6.51,6.51,0,0,1-1.13.76,2.41,2.41,0,0,1-1.18.32A1.47,1.47,0,0,1,380.15,118.72ZM382.31,106a2.75,2.75,0,0,0-.47.66,4.48,4.48,0,0,0-.35.78c-0.09.25-.17,0.44-0.22,0.56-0.27.76-.52,1.56-0.74,2.4a9.47,9.47,0,0,0-.33,2.44V113a1.55,1.55,0,0,0,0,.23c0.31-.44.64-1,1-1.56a19.35,19.35,0,0,0,1-1.82,13.89,13.89,0,0,0,.72-1.89,5.85,5.85,0,0,0,.29-1.72v-0.15a2,2,0,0,0,0-.21,0.93,0.93,0,0,0-.09-0.17,0.25,0.25,0,0,0-.18-0.07A0.78,0.78,0,0,0,382.31,106Z" transform="translate(-272.67 -31.86)"/><path id="_Compound_Path_12" data-name="&lt;Compound Path&gt;" d="M386.54,116.85a1.69,1.69,0,0,0,.08.48,1.41,1.41,0,0,0,.2.42,0.48,0.48,0,0,0,.38.18,1.47,1.47,0,0,0,.84-0.31,7.75,7.75,0,0,0,1.66-1.56c0.24-.29.43-0.51,0.55-0.7l0.23-.27a0.42,0.42,0,0,1,.31-0.13,0.19,0.19,0,0,1,.22.11,1.3,1.3,0,0,1,0,.24,0.47,0.47,0,0,1-.06.2l-0.14.24-0.18.22a1.33,1.33,0,0,1-.14.16c-0.18.22-.41,0.47-0.69,0.77a9.88,9.88,0,0,1-.94.87,6.52,6.52,0,0,1-1,.68,2.26,2.26,0,0,1-1,.29,1.28,1.28,0,0,1-.91-0.31,2.2,2.2,0,0,1-.52-0.73,2.83,2.83,0,0,1-.25-0.91A6.51,6.51,0,0,1,385,116a5.27,5.27,0,0,1,.13-1,8.18,8.18,0,0,1,.28-1,2.21,2.21,0,0,1,.47-0.74,1.3,1.3,0,0,1,.91-0.3,0.37,0.37,0,0,1,.45.37,1.11,1.11,0,0,1-.07.38,2.54,2.54,0,0,1-.16.45c-0.07.16-.12,0.31-0.18,0.47a2.7,2.7,0,0,0-.16.42,6.3,6.3,0,0,0-.17,1.43C386.53,116.56,386.54,116.67,386.54,116.85Zm1.26-6.2a0.61,0.61,0,0,1,.18.41,0.87,0.87,0,0,1-.28.61,0.92,0.92,0,0,1-.65.26,0.62,0.62,0,0,1-.48-0.19,0.59,0.59,0,0,1-.17-0.43,0.9,0.9,0,0,1,.26-0.59,0.89,0.89,0,0,1,.64-0.26A0.62,0.62,0,0,1,387.79,110.65Z" transform="translate(-272.67 -31.86)"/><path id="_Compound_Path_13" data-name="&lt;Compound Path&gt;" d="M390.42,112.75a0.82,0.82,0,0,1,.5-0.2,0.66,0.66,0,0,1,.33.07,1.58,1.58,0,0,1,.25.2,4.52,4.52,0,0,1,.71.84c0.21,0.32.41,0.66,0.61,1s0.33,0.69.48,1.07a8.8,8.8,0,0,1,.33,1c0.45-.68.89-1.37,1.33-2.05a20.11,20.11,0,0,1,1.47-2l0.21-.22a0.38,0.38,0,0,1,.29-0.13,0.64,0.64,0,0,1,.34.11,0.32,0.32,0,0,1,.18.27,0.16,0.16,0,0,1-.06.12s-0.06.06-.08,0.1-0.26.3-.46,0.56-0.44.59-.68,1-0.52.71-.8,1.11l-0.75,1.11c-0.23.37-.43,0.67-0.59,0.95a2.41,2.41,0,0,0-.27.54,1.94,1.94,0,0,1-.15.4,0.46,0.46,0,0,1-.43.16,0.43,0.43,0,0,1-.45-0.17,3,3,0,0,1-.13-0.43,6.39,6.39,0,0,0-.29-1.07,12,12,0,0,0-.53-1.33c-0.21-.44-0.42-0.87-0.65-1.25a4.43,4.43,0,0,0-.69-0.94l-0.18-.15a0.24,0.24,0,0,1-.09-0.19A0.58,0.58,0,0,1,390.42,112.75Z" transform="translate(-272.67 -31.86)"/><path id="_Compound_Path_14" data-name="&lt;Compound Path&gt;" d="M400.19,116.85a3,3,0,0,0,.08.48,1.32,1.32,0,0,0,.2.42,0.47,0.47,0,0,0,.38.18,1.49,1.49,0,0,0,.84-0.31,7.13,7.13,0,0,0,.88-0.72,9.68,9.68,0,0,0,.8-0.85c0.23-.29.41-0.51,0.54-0.7a3.17,3.17,0,0,0,.22-0.27,0.42,0.42,0,0,1,.31-0.13,0.18,0.18,0,0,1,.21.11,0.74,0.74,0,0,1,0,.24,0.45,0.45,0,0,1-.07.2,1.67,1.67,0,0,1-.14.24c0,0.08-.11.14-0.16,0.22l-0.15.16c-0.18.22-.41,0.47-0.69,0.77a10.51,10.51,0,0,1-.94.87,6.39,6.39,0,0,1-1,.68,2.26,2.26,0,0,1-1.06.29,1.31,1.31,0,0,1-.91-0.31,2.34,2.34,0,0,1-.52-0.73,3,3,0,0,1-.25-0.91,7.34,7.34,0,0,1-.06-0.84,5,5,0,0,1,.13-1,9.08,9.08,0,0,1,.28-1,2.08,2.08,0,0,1,.47-0.74,1.31,1.31,0,0,1,.91-0.3,0.36,0.36,0,0,1,.44.37,1.63,1.63,0,0,1-.06.38c0,0.14-.1.3-0.16,0.45l-0.2.47a3,3,0,0,0-.15.42,5.84,5.84,0,0,0-.18,1.43C400.18,116.56,400.18,116.67,400.19,116.85Zm1.25-6.2a0.58,0.58,0,0,1,.19.41,0.94,0.94,0,0,1-.27.61,1,1,0,0,1-.65.26,0.62,0.62,0,0,1-.49-0.19,0.6,0.6,0,0,1-.18-0.43,1,1,0,0,1,.25-0.59,0.91,0.91,0,0,1,.65-0.26A0.56,0.56,0,0,1,401.44,110.65Z" transform="translate(-272.67 -31.86)"/><path id="_Compound_Path_15" data-name="&lt;Compound Path&gt;" d="M403.94,118.84a0.44,0.44,0,0,1-.1-0.29,11.12,11.12,0,0,1,.29-2.46c0.21-.84.4-1.66,0.6-2.44,0.06-.23.12-0.49,0.17-0.75a7.36,7.36,0,0,1,.17-0.77,0.9,0.9,0,0,1,.41-0.53,1.09,1.09,0,0,1,.69-0.26,0.63,0.63,0,0,1,.46.15,0.76,0.76,0,0,1,.12.42,2.48,2.48,0,0,1-.16.89c-0.11.29-.21,0.58-0.33,0.85a4.83,4.83,0,0,0-.32.91,9.42,9.42,0,0,0-.19.94c0.13-.17.35-0.43,0.63-0.74a10.38,10.38,0,0,1,.89-1,9.15,9.15,0,0,1,1-.84,1.56,1.56,0,0,1,.85-0.35,0.66,0.66,0,0,1,.47.19,1,1,0,0,1,.24.44,2.15,2.15,0,0,1,.12.5c0,0.18,0,.31,0,0.44,0,0.39,0,.76,0,1.13s0,0.77,0,1.15c0,0.09,0,.19,0,0.31a0.87,0.87,0,0,0,.07.32,0.61,0.61,0,0,0,.18.25,0.58,0.58,0,0,0,.35.09,1.4,1.4,0,0,0,.77-0.25,3.4,3.4,0,0,0,.77-0.6,5.81,5.81,0,0,0,.66-0.72,6.71,6.71,0,0,0,.43-0.63c0.05-.08.12-0.16,0.18-0.27a0.38,0.38,0,0,1,.3-0.14,0.31,0.31,0,0,1,.23.11,0.36,0.36,0,0,1,.08.22,0.33,0.33,0,0,1,0,.17,1.71,1.71,0,0,0-.09.17,5.06,5.06,0,0,1-.6.85,6,6,0,0,1-.9.89,5.81,5.81,0,0,1-1.07.72,2.44,2.44,0,0,1-1.11.29,1.37,1.37,0,0,1-.78-0.2,1.41,1.41,0,0,1-.42-0.56,2,2,0,0,1-.18-0.69c0-.25,0-0.46,0-0.68s0-.62,0-0.91,0-.62,0-0.93a1.52,1.52,0,0,0,0-.21,0.15,0.15,0,0,0-.14-0.11,0.39,0.39,0,0,0-.24.09,0.85,0.85,0,0,0-.21.16,6.15,6.15,0,0,0-.89.9l-0.77,1a13.9,13.9,0,0,0-.76,1.17c-0.23.39-.46,0.8-0.67,1.21a1.38,1.38,0,0,1-.33.34,0.7,0.7,0,0,1-.46.16A0.37,0.37,0,0,1,403.94,118.84Z" transform="translate(-272.67 -31.86)"/><path id="_Compound_Path_16" data-name="&lt;Compound Path&gt;" d="M417.24,112.91a7,7,0,0,0-1.37.91,7,7,0,0,0-.56.58,5.33,5.33,0,0,0-.56.69,6.1,6.1,0,0,0-.41.77,1.82,1.82,0,0,0-.17.74,0.76,0.76,0,0,0,.13.44,0.51,0.51,0,0,0,.47.19,2.06,2.06,0,0,0,1-.37,8.15,8.15,0,0,0,1.12-.91,11.24,11.24,0,0,0,1-1.08,5.71,5.71,0,0,0,.6-0.87,2.6,2.6,0,0,1,.43-0.57,0.93,0.93,0,0,1,.7-0.27,0.7,0.7,0,0,1,.52.16,0.6,0.6,0,0,1,.18.45c0,0.46,0,1,0,1.74s-0.1,1.44-.21,2.23a18,18,0,0,1-.49,2.33,8.18,8.18,0,0,1-.88,2.1,4.83,4.83,0,0,1-1.38,1.51,3.32,3.32,0,0,1-2,.59,2.26,2.26,0,0,1-.83-0.15,1.42,1.42,0,0,1-.59-0.52l-0.08-.15a0.36,0.36,0,0,1,0-.15,0.37,0.37,0,0,1,.11-0.28,0.44,0.44,0,0,1,.3-0.11,0.33,0.33,0,0,1,.27.09,2.12,2.12,0,0,1,.18.26,1,1,0,0,0,.21.23,0.56,0.56,0,0,0,.4.11,1.67,1.67,0,0,0,1.1-.42,4,4,0,0,0,.87-1.09,8.32,8.32,0,0,0,.66-1.49c0.19-.56.33-1.1,0.46-1.63s0.2-1,.26-1.48a10.4,10.4,0,0,0,.08-1.1c0-.22,0-0.43,0-0.64a6,6,0,0,0,0-.67c-0.18.26-.43,0.56-0.72,0.9a10.45,10.45,0,0,1-1,1,7.29,7.29,0,0,1-1.15.78,2.45,2.45,0,0,1-1.19.31,1.53,1.53,0,0,1-.67-0.12,1.42,1.42,0,0,1-.42-0.33,1.09,1.09,0,0,1-.23-0.49,2.06,2.06,0,0,1-.07-0.56,3,3,0,0,1,.15-0.92,4.25,4.25,0,0,1,.39-0.89,4.83,4.83,0,0,1,.57-0.82,4.54,4.54,0,0,1,.69-0.7,5.35,5.35,0,0,1,1.63-1,5.6,5.6,0,0,1,1.94-.33,3.59,3.59,0,0,1,.56.06,5.34,5.34,0,0,1,.69.17,1.76,1.76,0,0,1,.59.26,0.53,0.53,0,0,1,.25.4,0.15,0.15,0,0,1-.07.13,0.44,0.44,0,0,1-.15,0,0.63,0.63,0,0,1-.24-0.08l-0.35-.14a2.14,2.14,0,0,0-.44-0.16,1.57,1.57,0,0,0-.51-0.07A3.92,3.92,0,0,0,417.24,112.91Z" transform="translate(-272.67 -31.86)"/></g></g></svg>